<svg xmlns="http://www.w3.org/2000/svg" viewBox="0 0 48 48"><g fill="none"><path fill="#87fde2" d="M25.082 2c-.524 0-1.049.207-1.453.609-.007.006-.014.009-.02.015L10 10.617 23.574 24.41v.01L39.889 41 43 35.306 31.784 7.943 26.55 2.624A2.055 2.055 0 0 0 25.082 2Z" class="color66c3fa svgShape"/><path fill="#21967b" d="m10.616 10-7.99 13.561c-.007.006-.01.014-.016.02-.401.404-.61.932-.61 1.454 0 .53.21 1.054.623 1.46l6.622 6.506L35.145 43 41 39.807l-.157-.154-.04.005-16.237-15.963h-.02L10.615 10Z" class="color215896 svgShape"/><path fill="#23977c" d="m10 10 13.893 13.947h.02L39.905 40l6.087-1.164L46 20.777l-6.427-6.317c-1.408-1.384-3.571-2.275-5.745-2.568l.005-.07L10.001 10H10Z" class="color235997 svgShape"/><path fill="#58f0cd" d="M10 10 23.947 23.9v.02L40 39.915 38.832 46H20.764l-6.317-6.43c-1.384-1.408-2.275-3.571-2.567-5.745l-.07.005L10 10Z" class="color58b6f0 svgShape"/></g></svg>