<?xml version="1.0" encoding="UTF-8"?>
<svg version="1.1" xmlns="http://www.w3.org/2000/svg" width="56" height="56">
<path d="M0 0 C1.32 0 2.64 0 4 0 C5.31640625 1.36328125 5.31640625 1.36328125 6.5625 3.3125 C9.16710858 7.08719924 12.07180199 10.01288198 15.4375 13.125 C23.75989786 21.04135846 28.77167618 31.18976998 29.23828125 42.73046875 C29.53140987 56.97130851 28.64747844 65.90187823 18.58984375 76.62890625 C15.8808562 79.10908037 13.0670492 81.04837796 10 83.0625 C6.1854439 85.59742027 6.1854439 85.59742027 4.08203125 89.49609375 C3.84120145 91.73336767 3.7774495 93.76414381 4 96 C2.68 96 1.36 96 0 96 C0.05542969 95.443125 0.11085938 94.88625 0.16796875 94.3125 C0.1912661 91.55409426 -0.03958464 89.60163149 -1 87 C-3.54092929 84.61213874 -6.22964841 82.80613809 -9.140625 80.890625 C-17.41701413 75.41825842 -21.88315424 68.35053729 -25 59 C-25.25583527 55.65049617 -25.2314076 52.29575209 -25.25 48.9375 C-25.270625 48.03322266 -25.29125 47.12894531 -25.3125 46.19726562 C-25.38237186 33.97842395 -21.39913167 23.44335145 -12.82421875 14.65625 C-11.09867045 12.93045995 -9.35669089 11.22924 -7.58251953 9.5534668 C-5.03485921 7.13457858 -3.11202903 5.19664953 -1.35546875 2.11328125 C-0.68451172 1.06720703 -0.68451172 1.06720703 0 0 Z M1 6 C-0.56864082 7.5507907 -0.56864082 7.5507907 -2.1875 9.5625 C-4.55494976 12.36307986 -6.96355383 14.97832344 -9.625 17.5 C-18.44961578 26.26525738 -21.28971679 36.17480052 -21.5625 48.375 C-21.54274881 59.05519738 -18.42071266 66.65410852 -11.0625 74.5 C-7.5610523 77.88993662 -4.50587774 79.42521272 0 82 C0 58.9 0 35.8 0 12 C1.32 12 2.64 12 4 12 C4 35.1 4 58.2 4 82 C14.04195521 75.30536319 21.91101061 69.95958283 25 58 C26.57313721 45.42910031 25.55542209 32.8334471 17.875 22.375 C14.20398309 18.00968207 10.14015821 14.02501676 6.0390625 10.06640625 C4 8 4 8 3 6 C2.34 6 1.68 6 1 6 Z " fill="#28B2C1" transform="translate(46,0)"/>
<path d="M0 0 C8.19421843 4.09710922 12.58995538 11.71443703 16 20 C17.32400491 24.53868169 17.26088733 28.99074682 17.3125 33.6875 C17.34150391 34.54794922 17.37050781 35.40839844 17.40039062 36.29492188 C17.48071113 44.49379233 15.14502314 51.29377053 9.5 57.375 C8.9328125 58.00148437 8.365625 58.62796875 7.78125 59.2734375 C2.90497738 64 2.90497738 64 0 64 C0 42.88 0 21.76 0 0 Z " fill="#2AAEC8" transform="translate(52,14)"/>
<path d="M0 0 C0.99 0.33 1.98 0.66 3 1 C2.1565796 4.86567683 0.60119875 8.20919093 -1.0625 11.78125 C-4.32728822 19.50791545 -4.53668164 30.25234181 -1.953125 38.234375 C-0.75687756 40.61279638 0.49725537 42.80508208 2 45 C2.66 45.99 3.32 46.98 4 48 C2.68 48.66 1.36 49.32 0 50 C-0.96861464 48.79989255 -1.9243885 47.58941756 -2.875 46.375 C-3.40867187 45.70210937 -3.94234375 45.02921875 -4.4921875 44.3359375 C-8.19536415 38.59889181 -8.38741029 32.93525391 -8.375 26.3125 C-8.37338867 25.4248999 -8.37177734 24.5372998 -8.37011719 23.62280273 C-8.2015448 14.58682676 -6.46974397 6.70080625 0 0 Z " fill="#29B0C8" transform="translate(35,22)"/>
</svg>
