<?xml version="1.0" encoding="iso-8859-1"?>
<!-- Generator: Adobe Illustrator 24.1.2, SVG Export Plug-In . SVG Version: 6.00 Build 0)  -->
<svg version="1.1" baseProfile="basic" id="Layer_1"
	 xmlns="http://www.w3.org/2000/svg" xmlns:xlink="http://www.w3.org/1999/xlink" x="0px" y="0px" viewBox="0 0 48 48"
	 xml:space="preserve">
<path d="M38,9c0.551,0,1,0.449,1,1v28c0,0.551-0.449,1-1,1H10c-0.551,0-1-0.449-1-1V10c0-0.551,0.449-1,1-1H38 M38,6H10
	c-2.209,0-4,1.791-4,4v28c0,2.209,1.791,4,4,4h28c2.209,0,4-1.791,4-4V10C42,7.791,40.209,6,38,6L38,6z"/>
<g>
	<path d="M25.906,24.781h-3.994v11.436h-3.164V24.781h-3.975v-2.568h11.133V24.781z"/>
	<path d="M27.146,35.679v-3.125c0.566,0.475,1.182,0.832,1.846,1.069s1.334,0.356,2.012,0.356c0.397,0,0.744-0.036,1.04-0.107
		s0.543-0.171,0.742-0.298s0.347-0.277,0.444-0.449s0.146-0.36,0.146-0.562c0-0.273-0.078-0.518-0.234-0.732s-0.37-0.414-0.64-0.596
		s-0.591-0.358-0.962-0.527s-0.771-0.342-1.201-0.518c-1.094-0.456-1.909-1.012-2.446-1.67s-0.806-1.452-0.806-2.383
		c0-0.729,0.146-1.356,0.439-1.88s0.692-0.956,1.196-1.294s1.089-0.587,1.753-0.747c0.664-0.16,1.367-0.239,2.109-0.239
		c0.729,0,1.375,0.044,1.938,0.132s1.083,0.223,1.558,0.405v2.92c-0.234-0.163-0.49-0.306-0.767-0.43s-0.562-0.226-0.854-0.308
		s-0.584-0.142-0.874-0.181s-0.565-0.059-0.825-0.059c-0.358,0-0.684,0.034-0.977,0.103s-0.541,0.165-0.742,0.288
		s-0.358,0.272-0.469,0.444s-0.166,0.366-0.166,0.581c0,0.234,0.062,0.444,0.186,0.63s0.299,0.361,0.527,0.527
		s0.504,0.329,0.83,0.488s0.693,0.324,1.104,0.493c0.56,0.234,1.063,0.483,1.509,0.747s0.829,0.562,1.147,0.894
		s0.563,0.711,0.732,1.138s0.254,0.923,0.254,1.489c0,0.781-0.148,1.437-0.444,1.968s-0.698,0.96-1.206,1.289
		s-1.099,0.565-1.772,0.708s-1.385,0.215-2.134,0.215c-0.768,0-1.499-0.065-2.192-0.195S27.654,35.939,27.146,35.679z"/>
</g>
</svg>